# xmcd CD database file
#
# Track frame offsets:
#	150
#	36270
#	43460
#	56575
#	69296
#	85204
#	97710
#	110514
#	119815
#	135642
#	146503
#	158024
#	168507
#	178773
#	190749
#	202485
#	210717
#	223356
#
# Disc length: 3128 seconds
#
# Revision: 1
# Processed by: cddbd v1.5.1PL0 Copyright (c) Steve Scherf et al.
# Submitted via: CDex 1.51
#
DISCID=1a0c3612
DTITLE=Jimi Hendrix (w. Lonnie Youngblood) - Two great Experiences [CD remastered)
DYEAR=2003
DGENRE=R&B
TTITLE0=Mother, Mother
TTITLE1=Under The Table 1 (3) Take 1
TTITLE2=Under The Table 1 (3) Take 2
TTITLE3=Wipe The Sweat 1 (3)
TTITLE4=Wipe The Sweat 2 (1)
TTITLE5=Wipe The Sweat 3 (1)
TTITLE6=Go Go Shoes (2)
TTITLE7=Go Go Place (2)
TTITLE8=Soul Food (2)
TTITLE9=Goodbye Bessie Mae (2)
TTITLE10=Sweet Thang (4) aka. Wipe The Sweat 3 (4)
TTITLE11=Groove Maker 1 (3)
TTITLE12=Groove Maker  2 (2)
TTITLE13=She's A Fox (1)
TTITLE14=Go Go Shoes (3)
TTITLE15=Go Go Place (1)
TTITLE16=Soul Food (1)
TTITLE17=Goodbye Bessie Mae (1)
EXTD=YEAR: 2003
EXTT0=
EXTT1=
EXTT2=
EXTT3=
EXTT4=
EXTT5=
EXTT6=
EXTT7=
EXTT8=
EXTT9=
EXTT10=
EXTT11=
EXTT12=
EXTT13=
EXTT14=
EXTT15=
EXTT16=
EXTT17=
PLAYORDER=
